<?xml version="1.0" standalone="no"?>
<!DOCTYPE svg PUBLIC "-//W3C//DTD SVG 20010904//EN"
 "http://www.w3.org/TR/2001/REC-SVG-20010904/DTD/svg10.dtd">
<svg version="1.0" xmlns="http://www.w3.org/2000/svg"
 width="85.000000pt" height="42.000000pt" viewBox="0 0 85.000000 42.000000"
 preserveAspectRatio="xMidYMid meet">

<g transform="translate(0.000000,42.000000) scale(0.100000,-0.100000)"
fill="#000000" stroke="none">
<path d="M780 350 l0 -70 -26 10 c-66 25 -136 3 -175 -56 -26 -39 -26 -128 0
-170 39 -63 148 -83 209 -37 53 40 62 74 62 240 l0 153 -35 0 -35 0 0 -70z
m-18 -137 c21 -18 24 -69 7 -107 -24 -52 -98 -55 -133 -4 -25 36 -20 76 14
110 26 25 36 29 62 24 18 -3 40 -14 50 -23z"/>
<path d="M442 368 c-7 -7 -12 -22 -12 -35 0 -27 42 -42 65 -23 28 23 11 70
-25 70 -9 0 -21 -5 -28 -12z"/>
<path d="M51 286 c-41 -23 -50 -53 -51 -168 l0 -108 35 0 35 0 0 104 c0 117
10 138 55 118 24 -11 25 -15 25 -117 l0 -105 35 0 35 0 0 105 c0 103 1 106 25
117 45 21 59 -7 63 -122 l4 -100 29 0 29 0 0 111 c0 121 -6 141 -50 164 -37
19 -73 19 -109 0 -25 -12 -31 -12 -47 0 -24 18 -81 18 -113 1z"/>
<path d="M440 140 l0 -130 30 0 30 0 0 130 0 130 -30 0 -30 0 0 -130z"/>
</g>
</svg>
